<svg xmlns="http://www.w3.org/2000/svg" fill-rule="evenodd" stroke-linejoin="round" stroke-miterlimit="2" clip-rule="evenodd" viewBox="0 0 18 18"><path fill="none" d="M0 0h18v18H0z"/><path fill="none" d="M0 0h18v18H0z"/><path fill="#3949ab" fill-rule="nonzero" d="M3 4.5H1.5V15c0 .825.675 1.5 1.5 1.5h10.5V15H3V4.5z"/><path fill="#3949ab" fill-rule="nonzero" d="M15 1.5H6c-.825 0-1.5.675-1.5 1.5v9c0 .825.675 1.5 1.5 1.5h9c.825 0 1.5-.675 1.5-1.5V3c0-.825-.675-1.5-1.5-1.5zM15 9l-1.875-1.125L11.25 9V3H15v6z"/></svg>