<?xml version="1.0" encoding="UTF-8" standalone="no"?>
<!DOCTYPE svg PUBLIC "-//W3C//DTD SVG 1.1//EN" "http://www.w3.org/Graphics/SVG/1.1/DTD/svg11.dtd">
<svg width="100%" height="100%" viewBox="0 0 48 48" version="1.1" xmlns="http://www.w3.org/2000/svg" xmlns:xlink="http://www.w3.org/1999/xlink" xml:space="preserve" xmlns:serif="http://www.serif.com/" style="fill-rule:evenodd;clip-rule:evenodd;stroke-linejoin:round;stroke-miterlimit:2;">
    <g>
        <path id="base-1-5" serif:id="base 1 5" d="M2,24C2,11.85 11.85,2 24,2C36.15,2 46,11.85 46,24C46,36.15 36.15,46 24,46C11.85,46 2,36.15 2,24Z" style="fill:rgb(57,73,171);fill-rule:nonzero;"/>
        <g transform="matrix(1.00099,0,0,1.00155,0.0854438,0.126699)">
            <rect x="-0.085" y="-0.127" width="47.953" height="47.926" style="fill:rgb(57,73,171);"/>
        </g>
        <path d="M22.581,39.557L22.581,36.487L16.45,30.356C15.167,29.073 14.526,27.042 14.526,24.262L14.526,20.366C14.526,19.039 14.429,18.126 14.234,17.627C14.176,17.478 14.086,17.342 13.963,17.22C13.678,16.934 13.218,16.723 12.584,16.585L12.584,15.745L17.516,15.745L22.584,20.813L22.584,8.443L25.435,8.443L32.736,15.745L35.416,15.745L48,28.329L48,48L31.024,48L22.581,39.557Z" style="fill:url(#_Linear1);fill-rule:nonzero;"/>
        <g transform="matrix(1.55568,0,0,1.55568,-13.3363,-13.3363)">
            <path d="M31.338,19.234C30.779,19.367 30.432,19.558 30.299,19.808C30.167,20.058 30.1,20.677 30.1,21.664L30.1,23.73C30.1,25.724 29.669,27.157 28.808,28.031C27.947,28.904 26.651,29.351 24.922,29.372L24.922,34L23.088,34L23.088,29.372C21.329,29.359 20.027,28.941 19.18,28.118C18.333,27.295 17.91,25.979 17.91,24.168L17.91,21.664C17.91,20.811 17.847,20.224 17.722,19.904C17.598,19.583 17.244,19.36 16.662,19.234L16.662,18.693L19.832,18.693L19.832,23.969C19.832,25.564 20.086,26.694 20.594,27.359C21.101,28.023 21.933,28.399 23.09,28.485L23.09,14L24.922,14L24.922,28.489C26.166,28.364 27.02,27.961 27.484,27.279C27.948,26.597 28.18,25.476 28.18,23.915L28.18,18.693L31.338,18.693L31.338,19.234Z" style="fill:none;fill-rule:nonzero;"/>
        </g>
        <path d="M35.416,16.585C34.545,16.792 34.007,17.09 33.8,17.479C33.593,17.867 33.49,18.83 33.49,20.366L33.49,23.58C33.49,26.681 32.82,28.912 31.48,30.27C30.14,31.629 28.125,32.325 25.435,32.358L25.435,39.557L22.581,39.557L22.581,32.358C19.845,32.337 17.819,31.687 16.502,30.407C15.184,29.127 14.526,27.078 14.526,24.262L14.526,20.366C14.526,19.039 14.429,18.126 14.234,17.627C14.04,17.129 13.49,16.782 12.584,16.585L12.584,15.745L17.516,15.745L17.516,23.952C17.516,26.433 17.911,28.191 18.701,29.225C19.491,30.259 20.785,30.843 22.584,30.977L22.584,8.443L25.435,8.443L25.435,30.984C27.37,30.789 28.699,30.162 29.42,29.101C30.142,28.04 30.503,26.296 30.503,23.868L30.503,15.745L35.416,15.745L35.416,16.585Z" style="fill:white;fill-rule:nonzero;"/>
        <path id="base-1-1-1" serif:id="base 1 1 1" d="M2,24C2,11.85 11.85,2 24,2C36.15,2 46,11.85 46,24C46,36.15 36.15,46 24,46C11.85,46 2,36.15 2,24Z" style="fill:none;fill-rule:nonzero;"/>
        <g>
            <g>
                <g id="Layer_2-1-1" serif:id="Layer_2 1 1">
                    <g>
                        <g id="Layer_1-2-1-1" serif:id="Layer_1-2 1 1">
                            <g>
                                <g id="text2160-4-48-1-1" serif:id="text2160-4-48 1 1">
                                </g>
                            </g>
                        </g>
                    </g>
                </g>
            </g>
        </g>
        <rect x="2" y="2" width="44" height="22" style="fill:none;"/>
        <rect x="2" y="2" width="44" height="22" style="fill:none;fill-rule:nonzero;"/>
        <rect x="2" y="2" width="44" height="22" style="fill:none;fill-rule:nonzero;"/>
        <rect x="2" y="2" width="44" height="22" style="fill:none;fill-rule:nonzero;"/>
        <rect x="2" y="2" width="44" height="22" style="fill:none;fill-rule:nonzero;"/>
    </g>
    <defs>
        <linearGradient id="_Linear1" x1="0" y1="0" x2="1" y2="0" gradientUnits="userSpaceOnUse" gradientTransform="matrix(44.0451,52.3267,-52.3267,44.0451,12.584,8.44323)"><stop offset="0" style="stop-color:black;stop-opacity:0.3"/><stop offset="1" style="stop-color:black;stop-opacity:0"/></linearGradient>
    </defs>
</svg>
