<svg version="1.1" xmlns="http://www.w3.org/2000/svg" xmlns:xlink="http://www.w3.org/1999/xlink" width="48" height="48"><defs><linearGradient x1="12.58404" y1="8.44323" x2="56.62916" y2="60.76998" gradientUnits="userSpaceOnUse" id="color-1"><stop offset="0" stop-color="#000000" stop-opacity="0.3"></stop><stop offset="1" stop-color="#000000" stop-opacity="0"></stop></linearGradient><filter id="dropshadow-base"><feColorMatrix type="matrix" values="0 0 0 0 0  0 0 0 0 0  0 0 0 0 0  0 0 0 .8 0"></feColorMatrix> <feOffset dx="0" dy="1"></feOffset> <feGaussianBlur stdDeviation="1"></feGaussianBlur> <feComposite in="SourceGraphic"></feComposite></filter><filter id="dropshadow-banner" x="-10%" y="-10%" width="120%" height="130%"><feColorMatrix type="matrix" values="0 0 0 0 0  0 0 0 0 0  0 0 0 0 0  0 0 0 .4 0"></feColorMatrix> <feOffset dx="0" dy="1"></feOffset> <feGaussianBlur stdDeviation="0.5"></feGaussianBlur> <feComposite in="SourceGraphic"></feComposite></filter></defs><g fill="none" fill-rule="nonzero" stroke="none" stroke-width="none" stroke-linecap="butt" stroke-linejoin="miter" stroke-miterlimit="10" stroke-dasharray="" stroke-dashoffset="0" font-family="none" font-weight="none" font-size="none" text-anchor="none" style="mix-blend-mode: normal"><path d="M2,24c0,-12.15026 9.84974,-22 22,-22c12.15026,0 22,9.84974 22,22c0,12.15026 -9.84974,22 -22,22c-12.15026,0 -22,-9.84974 -22,-22z" id="base 1 5" fill="#3949ab" stroke-width="1"></path><path d="M22.58096,39.55677v-3.06998l-6.13063,-6.13063c-1.28306,-1.28306 -1.92459,-3.31443 -1.92459,-6.09407v-3.89579c0,-1.32754 -0.09718,-2.24049 -0.29157,-2.73883c-0.05831,-0.1495 -0.14864,-0.28542 -0.27097,-0.40775c-0.28544,-0.28544 -0.74516,-0.49692 -1.37915,-0.63443v-0.84056h4.93176l5.06824,5.06824v-12.36974h2.8505l7.3015,7.3015l2.6799,0l10.47359,10.47359c-0.96001,9.58782 -8.0759,17.3614 -17.33698,19.31007z" fill="url(#color-1)" stroke-width="1"></path><path transform="translate(-13.33628,-13.33628) scale(1.55568,1.55568)" d="M31.33825,19.23378c-0.5596,0.13292 -0.90586,0.32433 -1.03878,0.57422c-0.13292,0.24989 -0.19938,0.86864 -0.19938,1.85625v2.0656c0,1.99382 -0.43066,3.42738 -1.29199,4.30067c-0.86133,0.87329 -2.15665,1.32057 -3.88595,1.34184v4.62765h-1.83431v-4.62765c-1.75855,-0.01329 -3.06118,-0.43133 -3.90789,-1.25411c-0.84671,-0.82278 -1.27006,-2.13937 -1.27006,-3.94976v-2.50424c0,-0.85335 -0.06247,-1.4402 -0.18742,-1.76054c-0.12495,-0.32034 -0.47852,-0.54365 -1.06071,-0.66992v-0.54032h3.17017v5.27565c0,1.59506 0.25388,2.72489 0.76164,3.38949c0.50776,0.66461 1.33985,1.04011 2.49626,1.12651v-14.4851h1.83232v14.48908c1.24414,-0.12495 2.09816,-0.52836 2.56206,-1.21025c0.4639,-0.68189 0.69584,-1.80308 0.69584,-3.36357v-5.22181h3.15821z" fill="none" stroke-width="0"></path><path d="M35.41596,16.58529c-0.87056,0.20678 -1.40922,0.50455 -1.61601,0.8933c-0.20678,0.38875 -0.31017,1.35133 -0.31017,2.88772v3.2134c0,3.10174 -0.66998,5.33189 -2.00993,6.69046c-1.33995,1.35856 -3.35505,2.05439 -6.04529,2.08747v7.19914h-2.8536v-7.19914c-2.73574,-0.02068 -4.76221,-0.67101 -6.07941,-1.951c-1.31721,-1.27999 -1.97581,-3.32817 -1.97581,-6.14455v-3.89579c0,-1.32755 -0.09719,-2.24049 -0.29156,-2.73884c-0.19438,-0.49835 -0.74442,-0.84574 -1.65013,-1.04218v-0.84057h4.93177v8.20721c0,2.48139 0.39496,4.23905 1.18487,5.27296c0.78991,1.03391 2.08437,1.61807 3.88338,1.75248v-22.53415h2.8505v22.54035c1.93549,-0.19438 3.26407,-0.82196 3.98574,-1.88276c0.72167,-1.0608 1.08251,-2.80501 1.08251,-5.23264v-8.12346h4.91316z" fill="#ffffff" stroke-width="0"></path><path d="M2,24c0,-12.15026 9.84974,-22 22,-22c12.15026,0 22,9.84974 22,22c0,12.15026 -9.84974,22 -22,22c-12.15026,0 -22,-9.84974 -22,-22z" id="base 1 1 1" fill="none" stroke-width="1"></path><g fill="#000000" stroke-width="1" font-family="Roboto, sans-serif" font-weight="400" font-size="14" text-anchor="start"><g id="Layer_2 1 1"><g id="Layer_1-2 1 1"><g id="text2160-4-48 1 1"><g></g></g></g></g></g><rect x="2" y="2" width="44" height="22" fill="none" stroke-width="1"></rect><path d="M2,24v-22h44v22z" fill="none" stroke-width="1"></path><path d="M2,24v-22h44v22z" fill="none" stroke-width="1"></path><path d="M2,24v-22h44v22z" fill="none" stroke-width="1"></path><path d="M2,24v-22h44v22z" fill="none" stroke-width="1"></path></g></svg>