<svg version="1" xmlns="http://www.w3.org/2000/svg" width="933.333" height="933.333" viewBox="0 0 700.000000 700.000000"><path d="M317 254.5v254.6l-4.7-.6c-11.4-1.3-14.3-1.8-22.8-3.7-35.6-7.9-59.6-26.6-72-56-3.1-7.2-6.6-18.2-8.1-25.1-1.8-8.2-3.5-17.8-4-22.1-.3-2.8-.8-6.2-1-7.6-1.4-8-1.9-39.2-1.9-128.7V165H91v19l2.8.6c18.5 4.1 30.9 12.8 35 24.6 4.5 12.8 5.4 23.5 5.8 67.3.7 69.9 1.3 108.9 1.8 112.5.2 1.9.7 5.7 1 8.5.8 6 2.1 13.7 4.2 25.1.2 1.1 1.8 6.8 3.5 12.5 13.5 45.5 39.4 73.7 83 90.4 22.1 8.5 54 13.9 85.7 14.4l3.2.1v160h64V540l2.3-.1c11.7-.5 24.4-1.4 33.7-2.4 21.6-2.5 44-9 63.5-18.5 38-18.7 61.5-49.4 73.5-96.1 1.2-4.6 2.4-9.5 2.6-10.9.3-1.4.9-4.8 1.4-7.5.5-2.8 1.2-7 1.5-9.5.4-2.5.8-5.9 1.1-7.5 1.5-10.6 1.9-24 2.9-113 .2-23.1.6-43.4.9-45 .2-1.7.8-5.5 1.1-8.5 2.4-19.2 9.6-27.1 31.5-34.3l9.5-3.2-.1-8c-.1-4.4-.2-8.6-.3-9.3-.1-1-11.5-1.2-55.3-1l-55.2.3-.1 103c-.1 56.6-.5 106.8-.9 111.5-1.6 17.3-2 20.3-3.7 30.5-.6 3.3-1.3 7.1-1.5 8.5-.9 4.7-5.4 20.5-7.3 25.6-5.7 14.7-11.3 23.7-21 33.2-14.3 14.1-31.9 22.3-60.1 28.1-5.2 1-11.9 2.2-14.7 2.5l-5.3.6V0h-64v254.5z"/></svg>